<svg width="107" height="109" viewBox="0 0 107 109" fill="none" xmlns="http://www.w3.org/2000/svg">
<g filter="url(#filter0_d_687_3080)">
<rect x="8.72656" y="41.5024" width="65.5524" height="65.5524" rx="16" transform="rotate(-29.9988 8.72656 41.5024)" fill="#FEF747"/>
<rect x="11.4586" y="42.2345" width="61.5524" height="61.5524" rx="14" transform="rotate(-29.9988 11.4586 42.2345)" stroke="#FEFFFF" stroke-width="4"/>
</g>
<path d="M40.7639 45.3526C40.6749 45.1981 40.5441 45.072 40.3865 44.9887C40.229 44.9053 40.051 44.8683 39.8733 44.8817C39.6956 44.8951 39.5253 44.9586 39.382 45.0646C39.2388 45.1707 39.1284 45.3151 39.0637 45.4811C38.2947 47.452 38.0955 48.9048 38.1903 50.0145C38.2529 50.8038 38.5024 51.5668 38.918 52.2407C39.5143 53.2735 40.5607 53.8834 41.6664 53.9656C41.5546 54.2758 41.4942 54.6022 41.4878 54.9319C41.4534 56.0725 41.9529 57.4975 43.0181 59.3425C44.0971 61.2116 45.6441 63.3112 47.0884 64.8675C47.8058 65.6411 48.5326 66.3176 49.189 66.7611C49.5156 66.9816 49.8707 67.1754 50.2311 67.2803C50.589 67.3809 51.0769 67.4267 51.5354 67.162C51.9939 66.8972 52.1982 66.4518 52.289 66.0922C52.3727 65.7109 52.3968 65.3189 52.3605 64.9301C52.3051 64.1383 52.0833 63.1717 51.7714 62.1625C51.0775 59.9762 50.156 57.8687 49.022 55.8748C47.9569 54.0298 46.9733 52.8858 45.9683 52.3452C45.6795 52.1859 45.3667 52.075 45.0421 52.0167C45.2882 51.5075 45.406 50.9458 45.3852 50.3806C45.3643 49.8154 45.2056 49.2639 44.9226 48.7741C44.3384 47.7621 43.4546 47.3305 42.7807 47.0004L42.722 46.9718C41.93 46.5833 41.287 46.2587 40.7639 45.3526ZM40.5557 51.2953C40.3678 50.9699 40.1359 50.5682 40.0755 49.8534C40.0314 49.3534 40.0713 48.6636 40.3162 47.7188C40.8528 48.1615 41.4016 48.4313 41.8659 48.6582L41.8903 48.6703C42.6147 49.025 43.0083 49.2403 43.285 49.7195C43.494 50.0815 43.5506 50.5116 43.4424 50.9153C43.3342 51.319 43.0701 51.6631 42.7082 51.8721C42.3463 52.081 41.9162 52.1377 41.5125 52.0295C41.1088 51.9213 40.7646 51.6572 40.5557 51.2953ZM44.6557 58.3971C43.6327 56.6252 43.3601 55.5831 43.3775 54.9879C43.3749 54.7932 43.4287 54.6018 43.5325 54.437C43.6479 54.2793 43.7983 54.1506 43.9719 54.061C44.1903 53.935 44.3659 53.8787 44.5173 53.8685C44.6567 53.8579 44.8338 53.8822 45.0719 54.0097C45.596 54.2923 46.3621 55.0494 47.3851 56.8213C48.3941 58.5692 49.3814 60.829 49.9654 62.7204C50.2586 63.672 50.4341 64.4804 50.4747 65.0625C50.4813 65.1552 50.4844 65.248 50.4841 65.3409C50.4035 65.2947 50.3246 65.2456 50.2476 65.1936C49.7638 64.8674 49.1509 64.31 48.4741 63.5814C47.0248 61.9905 45.7452 60.253 44.6557 58.3971ZM50.615 56.1531C51.2738 56.0807 51.917 55.9049 52.521 55.6321L51.1186 53.203C50.8496 52.737 50.675 52.2227 50.6048 51.6892C50.5346 51.1558 50.5701 50.6138 50.7094 50.0941C50.8486 49.5744 51.0889 49.0872 51.4164 48.6604C51.744 48.2335 52.1524 47.8754 52.6183 47.6064L55.0475 46.204C54.4419 45.3621 53.638 44.6827 52.7069 44.2259C51.7759 43.7691 50.7466 43.5491 49.7102 43.5854C48.6738 43.6217 47.6624 43.9131 46.7656 44.4338C45.8687 44.9546 45.1143 45.6885 44.569 46.5707C44.1922 46.3103 43.7938 46.0825 43.3783 45.8898L43.2771 45.8405L42.9102 45.6564C43.6181 44.4807 44.61 43.5016 45.7948 42.8091C46.9796 42.1165 48.3194 41.7326 49.6912 41.6926C51.0631 41.6526 52.4229 41.9578 53.6461 42.5802C54.8692 43.2026 55.9164 44.1223 56.6916 45.2548L58.6229 44.1398C59.0889 43.8708 59.6032 43.6962 60.1367 43.626C60.6701 43.5558 61.2121 43.5913 61.7318 43.7306C62.2515 43.8698 62.7387 44.1101 63.1655 44.4376C63.5924 44.7652 63.9505 45.1736 64.2195 45.6395L67.6861 51.6441C67.9551 52.1101 68.1297 52.6244 68.1999 53.1579C68.2702 53.6913 68.2346 54.2333 68.0954 54.753C67.9561 55.2727 67.7158 55.7599 67.3883 56.1867C67.0607 56.6136 66.6523 56.9717 66.1864 57.2407L60.1818 60.7073C59.2408 61.2506 58.1225 61.3978 57.0729 61.1165C56.0233 60.8353 55.1285 60.1486 54.5852 59.2076L53.4702 57.2763C52.8406 57.5785 52.1749 57.7989 51.4893 57.9322C51.2099 57.3221 50.9164 56.723 50.615 56.1531ZM59.5684 45.7774L57.5748 46.9283C58.2013 48.5495 58.2965 50.3278 57.8466 52.0066C57.3967 53.6855 56.4251 55.1779 55.0719 56.2686L56.2228 58.2621C56.8317 59.3168 58.1817 59.6786 59.2364 59.0697L65.241 55.6031C65.7477 55.3106 66.1174 54.8287 66.2689 54.2636C66.4203 53.6984 66.341 53.0963 66.0485 52.5895L62.5819 46.585C62.2894 46.0782 61.8075 45.7085 61.2424 45.557C60.6772 45.4056 60.0751 45.4849 59.5684 45.7774ZM54.1113 54.6048C55.0355 53.7842 55.6986 52.7106 56.0185 51.5168C56.3384 50.323 56.301 49.0616 55.911 47.8889L53.5638 49.244C53.057 49.5365 52.6873 50.0184 52.5359 50.5835C52.3844 51.1487 52.4637 51.7508 52.7562 52.2576L54.1113 54.6048Z" fill="#4082E6"/>
<defs>
<filter id="filter0_d_687_3080" x="2.58203" y="6.5835" width="101.836" height="101.833" filterUnits="userSpaceOnUse" color-interpolation-filters="sRGB">
<feFlood flood-opacity="0" result="BackgroundImageFix"/>
<feColorMatrix in="SourceAlpha" type="matrix" values="0 0 0 0 0 0 0 0 0 0 0 0 0 0 0 0 0 0 127 0" result="hardAlpha"/>
<feOffset dy="4"/>
<feGaussianBlur stdDeviation="6"/>
<feComposite in2="hardAlpha" operator="out"/>
<feColorMatrix type="matrix" values="0 0 0 0 1 0 0 0 0 0.910577 0 0 0 0 0.910577 0 0 0 0.76 0"/>
<feBlend mode="normal" in2="BackgroundImageFix" result="effect1_dropShadow_687_3080"/>
<feBlend mode="normal" in="SourceGraphic" in2="effect1_dropShadow_687_3080" result="shape"/>
</filter>
</defs>
</svg>
