<svg width="189" height="32" viewBox="0 0 189 32" fill="none" xmlns="http://www.w3.org/2000/svg">
<path d="M0.676643 5.71048L5.98319 1.5957V16.3525L13.6233 8.75846H21.2633L12.5187 17.5952L22.7361 31.7707H16.0626L8.46851 21.3692L5.98319 23.8545V31.7707H0L0.676643 5.71048Z" fill="#ECF3FD"/>
<path d="M25.022 19.6664C25.022 16.0151 25.9271 13.269 27.7374 11.428C29.5477 9.58699 31.9257 8.6665 34.8712 8.6665H35.1474V14.5116H34.9172C33.5979 14.5116 32.616 14.9258 31.9717 15.7543C31.3273 16.5827 31.0052 17.8868 31.0052 19.6664V31.7708H25.022V19.6664Z" fill="#ECF3FD"/>
<path d="M37.4336 19.9424C37.4336 17.8253 37.9399 15.8616 38.9524 14.0513C39.9956 12.2103 41.407 10.7529 43.1867 9.67898C44.997 8.57439 46.976 8.02209 49.1238 8.02209C51.0875 8.02209 52.9745 8.48234 54.7848 9.40283C56.5951 10.2926 58.0833 11.5967 59.2492 13.3149C60.4459 15.0332 61.0749 17.0582 61.1362 19.3902C61.1669 20.372 61.1055 21.3232 60.9521 22.2437H43.877C44.1532 23.3789 44.7515 24.2841 45.672 24.9591C46.6232 25.6035 47.7738 25.9256 49.1238 25.9256C50.075 25.9256 50.8421 25.8029 51.425 25.5574C52.0387 25.312 52.591 24.9898 53.0819 24.5909L60.2157 24.6369C59.2646 26.7541 57.8071 28.4723 55.8434 29.7917C53.8797 31.1111 51.7012 31.7707 49.3079 31.7707C47.1294 31.7707 45.135 31.2491 43.3247 30.2059C41.5144 29.132 40.0723 27.6899 38.9984 25.8796C37.9552 24.0693 37.4336 22.0903 37.4336 19.9424ZM54.7388 17.4571C54.2786 16.3832 53.5422 15.5241 52.5296 14.8797C51.5478 14.2047 50.4739 13.8672 49.3079 13.8672C48.0192 13.8672 46.9146 14.1894 45.9942 14.8337C45.0737 15.4781 44.368 16.3525 43.877 17.4571H54.7388Z" fill="#ECF3FD"/>
<path d="M75.304 31.7707C73.1562 31.7707 71.1771 31.2491 69.3668 30.2059C67.5565 29.132 66.1144 27.6899 65.0405 25.8796C63.9666 24.0386 63.4297 22.0442 63.4297 19.8964C63.4297 17.7486 63.9666 15.7696 65.0405 13.9593C66.1144 12.1183 67.5565 10.6762 69.3668 9.63295C71.1771 8.55905 73.1562 8.02209 75.304 8.02209C77.4518 8.02209 79.4309 8.55905 81.2412 9.63295C83.0515 10.6762 84.4782 12.1183 85.5215 13.9593C86.5954 15.7696 87.1323 17.7486 87.1323 19.8964V31.4026H81.1491V28.9633C80.8116 29.7303 80.0752 30.39 78.94 30.9423C77.8047 31.4946 76.5927 31.7707 75.304 31.7707ZM75.35 25.9256C77.0376 25.9256 78.4337 25.358 79.5383 24.2227C80.6429 23.0568 81.1952 21.6147 81.1952 19.8964C81.1952 18.1782 80.6429 16.7514 79.5383 15.6161C78.4337 14.4502 77.0376 13.8672 75.35 13.8672C73.6625 13.8672 72.2511 14.4502 71.1158 15.6161C69.9805 16.7514 69.4129 18.1782 69.4129 19.8964C69.4129 21.6147 69.9805 23.0568 71.1158 24.2227C72.2511 25.358 73.6625 25.9256 75.35 25.9256Z" fill="#ECF3FD"/>
<path d="M89.4185 8.75854H95.6778L100.925 23.9006L106.217 8.75854H112.477L103.916 31.7708H97.933L89.4185 8.75854Z" fill="#ECF3FD"/>
<path d="M130.155 1.4759C132.286 1.74286 134.183 2.52164 135.846 3.81222C137.543 5.07618 138.794 6.68634 139.601 8.64271C140.441 10.5724 140.728 12.6029 140.461 14.7341C140.194 16.8652 139.413 18.7774 138.119 20.4706C136.859 22.1372 135.249 23.3889 133.289 24.2257C131.363 25.0358 129.334 25.3074 127.203 25.0404C125.072 24.7734 123.158 24.008 121.461 22.744C119.798 21.4534 118.546 19.8433 117.706 17.9135C116.899 15.9572 116.63 13.9134 116.897 11.7822C117.164 9.65109 117.927 7.75222 119.187 6.08562C120.482 4.3924 122.092 3.14072 124.018 2.3306C125.978 1.49384 128.024 1.20894 130.155 1.4759ZM129.474 7.28141C127.799 7.07166 126.327 7.47468 125.055 8.49049C123.788 9.47585 123.047 10.821 122.833 12.5259C122.62 14.2308 123.004 15.7323 123.985 17.0303C124.971 18.2979 126.301 19.0366 127.975 19.2463C129.65 19.4561 131.105 19.0664 132.343 18.0772C133.584 17.0576 134.311 15.6953 134.524 13.9904C134.738 12.2855 134.367 10.8011 133.412 9.53735C132.461 8.24315 131.148 7.49117 129.474 7.28141Z" fill="#ECF3FD"/>
<path d="M116.801 23.4879C120.76 29.161 127.414 31.6511 135.589 27.4523" stroke="#ECF3FD" stroke-width="4.57197" stroke-linecap="round"/>
<circle cx="128.563" cy="12.8594" r="3.20038" transform="rotate(7.13997 128.563 12.8594)" fill="#ECF3FD"/>
<path d="M144.9 5.71048L150.206 1.5957V16.3525L157.846 8.75846H165.486L156.742 17.5952L166.959 31.7707H160.286L152.692 21.3692L150.206 23.8545V31.7707H144.223L144.9 5.71048Z" fill="#ECF3FD"/>
<path d="M179.122 31.7708C177.346 31.7708 175.707 31.4799 174.207 30.898C172.706 30.2854 171.496 29.3973 170.577 28.2335C169.689 27.0391 169.245 25.6149 169.245 23.9611H174.942C174.942 24.6961 175.34 25.2934 176.136 25.7527C176.963 26.2121 178.004 26.4418 179.26 26.4418C180.454 26.4418 181.373 26.2428 182.016 25.8446C182.69 25.4159 183.027 24.8799 183.027 24.2367C183.027 23.563 182.659 23.0883 181.924 22.8126C181.189 22.537 180.01 22.2613 178.387 21.9857C176.58 21.6794 175.079 21.3426 173.885 20.975C172.691 20.5769 171.649 19.9184 170.761 18.9996C169.904 18.0502 169.475 16.718 169.475 15.0029C169.475 13.686 169.888 12.5069 170.715 11.4656C171.573 10.3936 172.721 9.56673 174.161 8.98483C175.6 8.3723 177.208 8.06604 178.984 8.06604C181.741 8.06604 183.992 8.73982 185.737 10.0874C187.483 11.4043 188.356 13.2419 188.356 15.6001H182.659C182.659 14.957 182.277 14.421 181.511 13.9922C180.776 13.5635 179.903 13.3491 178.892 13.3491C177.912 13.3491 177.085 13.5482 176.412 13.9463C175.769 14.3444 175.447 14.8498 175.447 15.4623C175.447 16.0136 175.799 16.427 176.504 16.7027C177.208 16.9783 178.326 17.2386 179.857 17.4836C181.664 17.7899 183.18 18.1421 184.405 18.5402C185.63 18.9078 186.702 19.5662 187.621 20.5156C188.54 21.4344 188.999 22.7207 188.999 24.3746C189.03 26.8247 188.126 28.6776 186.289 29.9332C184.482 31.1583 182.093 31.7708 179.122 31.7708Z" fill="#ECF3FD"/>
</svg>
