<svg width="303" height="353" viewBox="0 0 303 353" fill="none" xmlns="http://www.w3.org/2000/svg">
<g opacity="0.4">
<path d="M118.3 37.8431C139.615 25.5368 162.332 19.5262 186.451 19.8113C210.698 19.6161 233.272 25.6649 254.173 37.9576C275.203 49.7701 291.871 66.3337 304.178 87.6488C316.484 108.964 322.582 131.833 322.473 156.256C322.492 180.199 316.444 202.773 304.327 223.979C292.339 244.704 275.687 261.22 254.372 273.526C233.057 285.833 210.276 292.083 186.028 292.278C161.91 291.993 139.336 285.945 118.306 274.132C97.4044 261.839 80.8006 245.036 68.4944 223.721C56.1882 202.406 50.0254 179.777 50.006 155.834C50.1153 131.411 56.164 108.836 68.1522 88.111C80.2691 66.9053 96.985 50.1493 118.3 37.8431ZM152.247 95.5867C135.5 105.256 124.833 119.128 120.247 137.204C115.485 154.975 118.027 172.387 127.872 189.439C137.717 206.491 151.613 217.55 169.56 222.616C187.331 227.378 204.591 224.924 221.338 215.255C238.086 205.586 248.688 191.954 253.145 174.358C257.427 156.458 254.645 138.982 244.8 121.93C234.955 104.878 221.299 93.8836 203.832 88.946C186.19 83.7039 168.995 85.9175 152.247 95.5867Z" fill="#C4D8F7"/>
<path d="M148.604 331.311C224.025 355.739 302.035 332.45 347.665 237.532" stroke="#C4D8F7" stroke-width="52.3917" stroke-linecap="round"/>
<circle cx="182.511" cy="152.841" r="36.6742" transform="rotate(-30 182.511 152.841)" fill="#C4D8F7"/>
</g>
</svg>
