<svg width="114" height="114" viewBox="0 0 114 114" fill="none" xmlns="http://www.w3.org/2000/svg">
<g filter="url(#filter0_f_687_2508)">
<g clip-path="url(#clip0_687_2508)">
<rect x="32.9336" y="1" width="86" height="86" rx="12" transform="rotate(21.7967 32.9336 1)" fill="#ECF3FD"/>
<path d="M54.2295 24.953L51.5685 23.8889C47.8417 22.3985 45.9769 21.6528 44.2635 21.8088C42.7563 21.9461 41.3322 22.5565 40.1935 23.5535C38.899 24.6869 38.1533 26.5516 36.6629 30.2784L35.5988 32.9395M54.2295 24.953L80.8467 35.5974M54.2295 24.953L56.8906 18.2987M80.8467 35.5974L83.5091 36.6621C87.2359 38.1525 89.0966 38.8966 90.23 40.1911C91.227 41.3298 91.8408 42.7552 91.9781 44.2624C92.134 45.9742 91.3891 47.8367 89.9017 51.5562L88.8332 54.2282M80.8467 35.5974L83.5078 28.9431M35.5988 32.9395L23.8897 62.219C22.3993 65.9458 21.6546 67.8082 21.8106 69.5217C21.9478 71.0289 22.5576 72.4547 23.5545 73.5934C24.6868 74.8866 26.5493 75.6315 30.2688 77.1189L62.23 89.9004C65.9495 91.3878 67.8093 92.1315 69.5211 91.9757C71.0283 91.8384 72.4565 91.2276 73.5951 90.2306C74.8884 89.0983 75.6321 87.2385 77.1196 83.519L88.8332 54.2282M35.5988 32.9395L88.8332 54.2282M64.8802 75.5232L64.8868 75.5259L64.884 75.5325L64.8776 75.5297L64.8802 75.5232ZM51.5716 70.201L51.5782 70.2037L51.5754 70.2103L51.569 70.2075L51.5716 70.201ZM38.263 64.8788L38.2696 64.8815L38.2668 64.8881L38.2604 64.8853L38.263 64.8788ZM70.2089 62.2172L70.2062 62.2239L70.1998 62.2211L70.2024 62.2146L70.2089 62.2172ZM56.8938 56.8924L56.9004 56.8951L56.8976 56.9017L56.8912 56.8989L56.8938 56.8924ZM43.5852 51.5702L43.5918 51.5729L43.589 51.5795L43.5826 51.5767L43.5852 51.5702Z" stroke="#7FABEE" stroke-width="5" stroke-linecap="round" stroke-linejoin="round"/>
</g>
</g>
<defs>
<filter id="filter0_f_687_2508" x="-3" y="-3" width="119.785" height="119.785" filterUnits="userSpaceOnUse" color-interpolation-filters="sRGB">
<feFlood flood-opacity="0" result="BackgroundImageFix"/>
<feBlend mode="normal" in="SourceGraphic" in2="BackgroundImageFix" result="shape"/>
<feGaussianBlur stdDeviation="2" result="effect1_foregroundBlur_687_2508"/>
</filter>
<clipPath id="clip0_687_2508">
<rect x="32.9336" y="1" width="86" height="86" rx="12" transform="rotate(21.7967 32.9336 1)" fill="white"/>
</clipPath>
</defs>
</svg>
