<svg width="222" height="89" viewBox="0 0 222 89" fill="none" xmlns="http://www.w3.org/2000/svg">
<rect x="0.561295" y="28.6464" width="214" height="60" rx="30" transform="rotate(-7.54119 0.561295 28.6464)" fill="#ECF3FD"/>
<rect x="0.561295" y="28.6464" width="214" height="60" rx="30" transform="rotate(-7.54119 0.561295 28.6464)" stroke="#4082E6"/>
<path d="M40.5788 50.3705C40.1057 49.723 39.5119 49.2609 38.7975 48.9843C38.083 48.7077 37.2816 48.6281 36.3934 48.7457C35.4099 48.8759 34.567 49.2135 33.8644 49.7584C33.1618 50.3033 32.651 51.0165 32.3319 51.898C32.0129 52.7795 31.9247 53.7596 32.0675 54.8381C32.2145 55.9485 32.5567 56.8877 33.0942 57.6558C33.6475 58.4218 34.3422 58.9754 35.1782 59.3166C36.0142 59.6579 36.9477 59.7602 37.9787 59.6238C39.2476 59.4558 40.2425 58.9851 40.9632 58.2119C41.6819 57.4227 42.0883 56.4086 42.1825 55.1695L36.4723 55.9255L36.1353 53.3797L45.1288 52.1891L45.5131 55.0918C45.4443 56.279 45.1102 57.4127 44.5108 58.4927C43.9113 59.5727 43.0725 60.4907 41.9944 61.2468C40.9301 61.9848 39.6841 62.4484 38.2566 62.6373C36.6546 62.8494 35.156 62.6847 33.7608 62.1431C32.3795 61.5835 31.231 60.7107 30.3154 59.5246C29.4157 58.3364 28.8577 56.9254 28.6414 55.2917C28.4251 53.658 28.5968 52.1504 29.1563 50.769C29.7296 49.3697 30.6114 48.2281 31.8017 47.3442C33.0058 46.4424 34.4009 45.8865 35.987 45.6765C37.8587 45.4287 39.5454 45.6735 41.0472 46.4108C42.5468 47.1322 43.6676 48.2831 44.4094 49.8634L40.5788 50.3705ZM46.6041 54.6326C46.4278 53.3002 46.533 52.0839 46.92 50.9836C47.3228 49.8812 47.9395 48.9926 48.7701 48.3177C49.6166 47.6408 50.6029 47.2277 51.7291 47.0787C52.7125 46.9485 53.5953 47.0334 54.3774 47.3333C55.1754 47.6311 55.8364 48.052 56.3603 48.596L56.1115 46.7164L59.4662 46.2723L61.2111 59.4533L57.8564 59.8974L57.6013 57.9702C57.2549 58.6455 56.7283 59.2398 56.0216 59.7529C55.3286 60.2482 54.4904 60.5609 53.507 60.6911C52.3966 60.8381 51.3437 60.6869 50.3481 60.2377C49.3684 59.7864 48.5407 59.0809 47.8649 58.1213C47.2029 57.1437 46.7826 55.9808 46.6041 54.6326ZM56.9839 53.3069C56.8768 52.4979 56.6269 51.829 56.2341 51.2999C55.8391 50.7551 55.3521 50.3676 54.7729 50.1377C54.1916 49.8918 53.5916 49.8098 52.973 49.8917C52.3544 49.9736 51.8034 50.1999 51.3198 50.5706C50.8363 50.9412 50.4668 51.4421 50.2114 52.073C49.9698 52.6861 49.9015 53.3891 50.0065 54.1822C50.1114 54.9753 50.3625 55.6522 50.7595 56.2129C51.1703 56.7557 51.6584 57.1511 52.2238 57.399C52.8051 57.6448 53.3971 57.7279 53.9999 57.6481C54.6185 57.5662 55.1775 57.3388 55.6769 56.9661C56.1742 56.5775 56.5436 56.0766 56.7853 55.4636C57.0248 54.8347 57.091 54.1158 56.9839 53.3069ZM65.8296 47.3908C66.1739 46.6997 66.6926 46.1065 67.3856 45.6112C68.0944 45.1139 68.9326 44.8012 69.9002 44.6731C71.0264 44.524 72.0783 44.6672 73.0559 45.1027C74.0493 45.536 74.876 46.2336 75.5359 47.1953C76.2096 48.139 76.6357 49.285 76.8142 50.6333C76.9927 51.9815 76.8816 53.2148 76.4809 54.333C76.0939 55.4333 75.4783 56.3299 74.6339 57.0227C73.8054 57.7134 72.828 58.1333 71.7018 58.2824C70.7184 58.4126 69.8288 58.3367 69.0329 58.0547C68.2507 57.7547 67.5967 57.3248 67.0706 56.765L67.3195 58.6446L63.9885 59.0856L61.6577 41.4792L64.9887 41.0382L65.8296 47.3908ZM73.4119 51.0837C73.3069 50.2906 73.05 49.6306 72.6414 49.1037C72.2464 48.5588 71.7594 48.1714 71.1802 47.9414C70.6169 47.7093 70.0259 47.6342 69.4073 47.7161C68.8045 47.7959 68.2545 48.0301 67.7572 48.4187C67.2737 48.7894 66.9042 49.2902 66.6488 49.9212C66.4093 50.5501 66.342 51.2611 66.447 52.0541C66.552 52.8472 66.8019 53.5162 67.1969 54.0611C67.6077 54.6039 68.0958 54.9992 68.6612 55.2472C69.2404 55.4771 69.8314 55.5522 70.4341 55.4724C71.0527 55.3905 71.6027 55.1563 72.0842 54.7698C72.5815 54.3812 72.9499 53.8724 73.1894 53.2436C73.4448 52.6126 73.519 51.8926 73.4119 51.0837ZM90.3361 42.1856L92.0811 55.3666L88.7263 55.8107L88.5058 54.1452C88.1532 54.773 87.6499 55.2996 86.9961 55.725C86.3561 56.1326 85.6316 56.3899 84.8226 56.497C83.7916 56.6335 82.8512 56.5401 82.0015 56.2168C81.1496 55.8777 80.438 55.3182 79.8667 54.5384C79.3092 53.7407 78.9528 52.755 78.7974 51.5812L77.7737 43.8487L81.1047 43.4077L82.0653 50.6644C82.2039 51.7112 82.5727 52.4855 83.1717 52.9873C83.7687 53.4731 84.5192 53.6562 85.4233 53.5365C86.3433 53.4147 87.0282 53.0416 87.4782 52.4172C87.926 51.7769 88.0806 50.9333 87.942 49.8864L86.9814 42.6297L90.3361 42.1856ZM100.426 40.6562C101.996 40.4483 103.331 40.78 104.431 41.6512C105.529 42.5065 106.195 43.8224 106.43 45.5989L107.454 53.3315L104.123 53.7724L103.159 46.4919C103.021 45.4451 102.653 44.6787 102.056 44.1928C101.457 43.6911 100.705 43.5001 99.8014 43.6198C98.8814 43.7416 98.1896 44.1237 97.7259 44.7661C97.2759 45.3905 97.1203 46.2262 97.2588 47.2731L98.2227 54.5535L94.8917 54.9945L93.1468 41.8135L96.4777 41.3725L96.695 43.0142C97.0636 42.3844 97.5679 41.8657 98.2079 41.4582C98.8617 41.0327 99.601 40.7654 100.426 40.6562ZM113.535 38.8965C114.519 38.7663 115.41 38.8501 116.208 39.148C117.003 39.43 117.657 39.8519 118.167 40.4138L117.918 38.5342L121.273 38.0901L123.03 51.3663C123.192 52.5876 123.09 53.7067 122.724 54.7235C122.36 55.7561 121.724 56.6151 120.814 57.3005C119.906 58.0017 118.754 58.4447 117.358 58.6295C115.487 58.8772 113.89 58.6447 112.569 57.9319C111.264 57.217 110.433 56.1166 110.074 54.6308L113.382 54.193C113.636 54.7726 114.072 55.1991 114.689 55.4725C115.324 55.7596 116.054 55.8486 116.879 55.7394C117.846 55.6113 118.593 55.2139 119.118 54.5472C119.645 53.8964 119.831 52.9841 119.675 51.8104L119.405 49.7642C119.058 50.4395 118.532 51.0338 117.825 51.547C117.134 52.0581 116.305 52.3777 115.337 52.5058C114.227 52.6527 113.174 52.5016 112.178 52.0524C111.183 51.6032 110.347 50.8987 109.671 49.9391C109.009 48.9616 108.589 47.7987 108.411 46.4504C108.234 45.118 108.339 43.9017 108.726 42.8014C109.129 41.699 109.746 40.8104 110.576 40.1355C111.423 39.4586 112.409 39.0456 113.535 38.8965ZM118.79 45.1247C118.683 44.3158 118.433 43.6468 118.04 43.1178C117.646 42.5729 117.158 42.1855 116.579 41.9555C115.998 41.7096 115.398 41.6277 114.779 41.7096C114.161 41.7915 113.61 42.0177 113.126 42.3884C112.643 42.7591 112.273 43.2599 112.018 43.8909C111.776 44.5039 111.708 45.2069 111.813 46C111.918 46.7931 112.169 47.47 112.566 48.0307C112.977 48.5735 113.465 48.9689 114.03 49.2168C114.611 49.4627 115.203 49.5457 115.806 49.4659C116.425 49.384 116.984 49.1567 117.483 48.7839C117.981 48.3953 118.35 47.8945 118.592 47.2814C118.831 46.6526 118.897 45.9337 118.79 45.1247ZM140.363 48.9749L133.34 42.3755L134.319 49.7749L130.988 50.2159L128.79 33.6088L132.121 33.1678L133.107 40.6149L138.164 32.3678L142.185 31.8355L136.423 40.9748L144.574 48.4174L140.363 48.9749ZM157.632 39.6922C157.695 40.1681 157.72 40.6005 157.707 40.9896L148.071 42.2653C148.276 43.2065 148.708 43.9079 149.366 44.3695C150.024 44.8311 150.782 45.0052 151.638 44.8918C152.876 44.728 153.685 44.0801 154.068 42.9481L157.661 42.4724C157.448 43.7918 156.857 44.9352 155.888 45.9028C154.916 46.8546 153.645 47.4344 152.075 47.6422C150.806 47.8102 149.627 47.6838 148.539 47.2631C147.464 46.8243 146.573 46.1273 145.865 45.1719C145.173 44.2143 144.738 43.0615 144.56 41.7132C144.379 40.3491 144.498 39.1148 144.917 38.0103C145.336 36.9058 146.008 36.0099 146.934 35.3224C147.86 34.635 148.973 34.2052 150.273 34.033C151.526 33.8671 152.68 33.9887 153.735 34.3978C154.806 34.8048 155.677 35.4723 156.349 36.4001C157.034 37.3101 157.462 38.4074 157.632 39.6922ZM154.056 39.1972C153.927 38.3428 153.527 37.7017 152.857 37.2739C152.185 36.8303 151.413 36.6662 150.54 36.7817C149.716 36.8909 149.051 37.2371 148.548 37.8202C148.057 38.3854 147.808 39.1206 147.798 40.0256L154.056 39.1972ZM161.498 28.262L163.828 45.8684L160.497 46.3094L158.167 28.703L161.498 28.262ZM164.908 38.971C164.732 37.6387 164.837 36.4223 165.224 35.322C165.627 34.2196 166.244 33.331 167.074 32.6562C167.921 31.9792 168.907 31.5662 170.033 31.4171C171.017 31.2869 171.899 31.3718 172.682 31.6717C173.479 31.9696 174.14 32.3905 174.664 32.9344L174.416 31.0548L177.77 30.6107L179.515 43.7917L176.16 44.2358L175.905 42.3086C175.559 42.9839 175.032 43.5782 174.326 44.0914C173.633 44.5866 172.794 44.8993 171.811 45.0295C170.701 45.1765 169.648 45.0254 168.652 44.5762C167.673 44.1248 166.845 43.4194 166.169 42.4597C165.507 41.4822 165.087 40.3193 164.908 38.971ZM175.288 37.6453C175.181 36.8364 174.931 36.1674 174.538 35.6384C174.143 35.0935 173.656 34.7061 173.077 34.4761C172.496 34.2303 171.896 34.1483 171.277 34.2302C170.659 34.3121 170.107 34.5383 169.624 34.909C169.14 35.2797 168.771 35.7805 168.516 36.4115C168.274 37.0245 168.206 37.7275 168.311 38.5206C168.416 39.3137 168.667 39.9906 169.064 40.5514C169.474 41.0941 169.962 41.4895 170.528 41.7374C171.109 41.9833 171.701 42.0663 172.304 41.9865C172.923 41.9046 173.482 41.6773 173.981 41.3045C174.478 40.9159 174.848 40.4151 175.089 39.8021C175.329 39.1732 175.395 38.4543 175.288 37.6453ZM187.365 42.9704C186.286 43.1132 185.294 43.051 184.387 42.7837C183.478 42.5005 182.725 42.0595 182.13 41.4605C181.55 40.8594 181.182 40.1575 181.028 39.3549L184.382 38.9107C184.513 39.4099 184.815 39.7977 185.287 40.0741C185.775 40.3484 186.344 40.4425 186.995 40.3564C187.629 40.2724 188.104 40.0804 188.419 39.7804C188.751 39.4784 188.89 39.1291 188.838 38.7325C188.781 38.3042 188.517 38.0164 188.045 37.869C187.588 37.7036 186.866 37.5571 185.881 37.4293C184.866 37.3215 184.024 37.1828 183.356 37.013C182.704 36.8411 182.113 36.5239 181.584 36.0613C181.071 35.5967 180.755 34.9202 180.638 34.032C180.541 33.3024 180.659 32.6089 180.992 31.9515C181.34 31.2921 181.88 30.7365 182.611 30.2846C183.358 29.8307 184.263 29.5333 185.325 29.3927C186.896 29.1848 188.201 29.4154 189.242 30.0846C190.281 30.7379 190.936 31.7245 191.207 33.0443L188.019 33.4663C187.902 32.9492 187.626 32.5662 187.189 32.3173C186.767 32.0505 186.23 31.9601 185.58 32.0462C184.977 32.126 184.524 32.299 184.22 32.5651C183.932 32.8292 183.815 33.1595 183.867 33.556C183.926 34.0002 184.193 34.3118 184.669 34.4909C185.142 34.6542 185.863 34.7928 186.83 34.9069C187.813 35.0188 188.631 35.1607 189.283 35.3326C189.935 35.5045 190.519 35.8307 191.035 36.3112C191.564 36.7737 191.894 37.4402 192.026 38.3104C192.126 39.0718 192.003 39.7822 191.654 40.4416C191.322 41.099 190.782 41.6546 190.035 42.1086C189.302 42.5445 188.412 42.8318 187.365 42.9704Z" fill="#4082E6"/>
</svg>
